<svg width="30" height="25" viewBox="0 0 30 25" fill="none" xmlns="http://www.w3.org/2000/svg">
<path d="M1 8.45598C1.00003 6.95185 1.45631 5.48311 2.30859 4.24374C3.16087 3.00438 4.36904 2.05269 5.77354 1.51438C7.17804 0.976067 8.7128 0.876455 10.1751 1.2287C11.6374 1.58094 12.9585 2.36847 13.9638 3.48727C14.0346 3.56298 14.1202 3.62334 14.2153 3.6646C14.3104 3.70587 14.413 3.72716 14.5166 3.72716C14.6203 3.72716 14.7228 3.70587 14.8179 3.6646C14.913 3.62334 14.9986 3.56298 15.0695 3.48727C16.0716 2.3612 17.393 1.56705 18.8577 1.21053C20.3223 0.854006 21.8609 0.952016 23.2685 1.49151C24.6761 2.03101 25.886 2.98641 26.7372 4.23055C27.5883 5.47468 28.0404 6.94855 28.0332 8.45598C28.0332 11.5513 26.0057 13.8626 23.9783 15.8901L16.5549 23.0715C16.3031 23.3608 15.9925 23.5931 15.644 23.7531C15.2954 23.9132 14.9168 23.9972 14.5332 23.9996C14.1497 24.002 13.77 23.9228 13.4195 23.7672C13.0689 23.6116 12.7554 23.3832 12.4999 23.0972L5.05499 15.8901C3.02749 13.8626 1 11.5648 1 8.45598Z" stroke="#6A53B8" stroke-width="2" stroke-linecap="round" stroke-linejoin="round"/>
</svg>
