<svg width="28" height="28" viewBox="0 0 28 28" fill="none" xmlns="http://www.w3.org/2000/svg">
<path d="M1.38733 17.0728C2.09463 17.6766 2.98018 18.0044 3.87724 18.0044L4.7858 18.0044L8.05775 18.0044L9.92087 18.0044L9.92087 22.3689C9.92087 24.2033 10.4557 25.5259 11.5137 26.3022C13.1871 27.5327 15.493 26.8312 15.5907 26.7967C15.8782 26.7047 16.0738 26.4402 16.0738 26.1411L16.0738 21.2591C16.0738 19.6662 16.8328 18.3149 18.3336 17.2396C19.455 16.4345 20.5993 16.0838 20.72 16.0435L20.8868 16.0033C21.1341 16.423 21.5883 16.7048 22.1116 16.7048L26.5797 16.7048C27.3617 16.7048 28 16.0665 28 15.2845L28 2.15064C28 1.36859 27.3617 0.730298 26.5797 0.730298L22.1001 0.730297C21.6631 0.730297 21.2663 0.93156 21.0076 1.24208C20.2888 0.477281 19.271 2.49447e-06 18.1669 2.39795e-06L14.3774 2.06667e-06L13.9864 2.03248e-06L6.21764 1.35332e-06C3.57822 1.12257e-06 1.89337 1.38009 1.59435 3.79524L0.0474992 13.3926C-0.165264 14.7727 0.346519 16.1873 1.38733 17.0728ZM22.0656 2.15064C22.0656 2.12764 22.0829 2.11038 22.1059 2.11038L26.5797 2.11038C26.6027 2.11038 26.6199 2.12764 26.6199 2.15064L26.6199 15.2845C26.6199 15.3075 26.6027 15.3247 26.5797 15.3247L22.1001 15.3247C22.0771 15.3247 22.0599 15.3075 22.0599 15.2845L22.0599 2.15064L22.0656 2.15064ZM1.42183 13.6111L2.96293 3.9965C2.96293 3.99075 2.96293 3.97925 2.96868 3.96775C3.18145 2.24839 4.27401 1.37434 6.22339 1.37434L13.9921 1.37434L14.3831 1.37434L18.1726 1.37434C19.3975 1.37434 20.4613 2.28865 20.651 3.49622C20.6568 3.53647 20.6683 3.57673 20.6798 3.61698L20.6798 14.6347L20.3808 14.7037C20.3693 14.7037 20.3635 14.7094 20.352 14.7094C20.2945 14.7267 18.9317 15.112 17.5573 16.0895C15.677 17.4236 14.6879 19.212 14.6879 21.2591L14.6879 25.5891C14.0899 25.6869 13.0663 25.7386 12.3245 25.1866C11.646 24.6863 11.301 23.7375 11.301 22.3689L11.301 17.3201C11.301 16.9406 10.9904 16.63 10.6109 16.63L8.05775 16.63L4.7858 16.63L3.87724 16.63C3.30795 16.63 2.73867 16.4173 2.28439 16.0263C1.60585 15.4455 1.27233 14.5197 1.42183 13.6111Z" fill="#6A53B8"/>
</svg>
