<svg width="276" height="275" viewBox="0 0 276 275" fill="none" xmlns="http://www.w3.org/2000/svg">
<path d="M131.47 8.12837C132.055 6.88887 132.959 5.8455 134.079 5.11603C135.199 4.38655 136.492 4 137.811 4C139.129 4 140.422 4.38655 141.542 5.11603C142.663 5.8455 143.566 6.88887 144.151 8.12837L174.987 73.6322C177.018 77.9436 180.017 81.6736 183.725 84.5022C187.434 87.3307 191.741 89.1732 196.278 89.8716L265.238 100.455C266.545 100.654 267.772 101.232 268.782 102.124C269.792 103.016 270.543 104.187 270.952 105.504C271.36 106.82 271.409 108.231 271.093 109.575C270.777 110.919 270.108 112.144 269.163 113.111L219.292 164.041C216.003 167.402 213.542 171.552 212.121 176.132C210.7 180.711 210.362 185.585 211.136 190.332L222.909 262.29C223.14 263.66 222.999 265.07 222.502 266.359C222.005 267.649 221.173 268.766 220.1 269.584C219.027 270.401 217.756 270.886 216.433 270.982C215.11 271.079 213.788 270.783 212.617 270.13L150.972 236.139C146.911 233.902 142.392 232.733 137.804 232.733C133.216 232.733 128.697 233.902 124.635 236.139L63.0039 270.13C61.8336 270.779 60.513 271.072 59.1922 270.973C57.8714 270.875 56.6034 270.389 55.5325 269.573C54.4616 268.756 53.6308 267.64 53.1346 266.353C52.6383 265.065 52.4965 263.658 52.7253 262.29L64.4856 190.346C65.2625 185.597 64.9259 180.72 63.505 176.137C62.0841 171.555 59.6214 167.403 56.3295 164.041L6.45842 113.125C5.50523 112.159 4.82977 110.932 4.50899 109.584C4.18821 108.236 4.235 106.82 4.64403 105.498C5.05306 104.176 5.80789 103.001 6.82253 102.107C7.83717 101.213 9.07082 100.636 10.383 100.441L79.3295 89.8716C83.8715 89.1786 88.1849 87.3385 91.8985 84.5096C95.6121 81.6807 98.6146 77.9478 100.648 73.6322L131.47 8.12837Z" stroke="black" stroke-width="8" stroke-linecap="round" stroke-linejoin="round"/>
</svg>
