<svg width="22" height="22" viewBox="0 0 22 22" fill="none" xmlns="http://www.w3.org/2000/svg">
<path d="M10.5288 1.29489C10.5726 1.20635 10.6403 1.13183 10.7242 1.07972C10.8081 1.02761 10.905 1 11.0038 1C11.1025 1 11.1994 1.02761 11.2833 1.07972C11.3672 1.13183 11.4349 1.20635 11.4788 1.29489L13.7888 5.97389C13.9409 6.28186 14.1656 6.5483 14.4434 6.75035C14.7212 6.95239 15.0439 7.08401 15.3838 7.13389L20.5498 7.88989C20.6476 7.90408 20.7396 7.94537 20.8152 8.00909C20.8909 8.07282 20.9472 8.15644 20.9778 8.2505C21.0084 8.34456 21.012 8.4453 20.9883 8.54133C20.9647 8.63736 20.9146 8.72485 20.8438 8.79389L17.1078 12.4319C16.8614 12.672 16.677 12.9684 16.5706 13.2955C16.4642 13.6227 16.4388 13.9708 16.4968 14.3099L17.3788 19.4499C17.396 19.5477 17.3855 19.6485 17.3483 19.7406C17.311 19.8327 17.2487 19.9125 17.1683 19.9709C17.0879 20.0293 16.9927 20.0639 16.8936 20.0708C16.7945 20.0777 16.6955 20.0566 16.6078 20.0099L11.9898 17.5819C11.6855 17.4221 11.3469 17.3386 11.0033 17.3386C10.6596 17.3386 10.321 17.4221 10.0168 17.5819L5.39975 20.0099C5.31208 20.0563 5.21315 20.0772 5.1142 20.0701C5.01526 20.0631 4.92027 20.0285 4.84005 19.9701C4.75982 19.9118 4.69759 19.8321 4.66041 19.7401C4.62323 19.6482 4.61261 19.5476 4.62975 19.4499L5.51075 14.3109C5.56895 13.9716 5.54374 13.6233 5.43729 13.2959C5.33084 12.9686 5.14636 12.672 4.89975 12.4319L1.16375 8.79489C1.09235 8.72593 1.04175 8.63829 1.01772 8.54197C0.993684 8.44565 0.99719 8.34451 1.02783 8.25008C1.05847 8.15566 1.11502 8.07174 1.19103 8.00788C1.26704 7.94402 1.35946 7.90279 1.45775 7.88889L6.62275 7.13389C6.96301 7.08439 7.28614 6.95295 7.56434 6.75088C7.84253 6.54881 8.06746 6.28216 8.21975 5.97389L10.5288 1.29489Z" stroke="black" stroke-opacity="0.6" stroke-width="2" stroke-linecap="round" stroke-linejoin="round"/>
</svg>
