<svg width="26" height="19" viewBox="0 0 26 19" fill="none" xmlns="http://www.w3.org/2000/svg">
<path d="M5.80005 8.2H10.6" stroke="#6A53B8" stroke-width="2" stroke-linecap="round" stroke-linejoin="round"/>
<path d="M8.19995 5.79999V10.6" stroke="#6A53B8" stroke-width="2" stroke-linecap="round" stroke-linejoin="round"/>
<path d="M16.6001 9.39999H16.6121" stroke="#6A53B8" stroke-width="2" stroke-linecap="round" stroke-linejoin="round"/>
<path d="M20.2 6.99999H20.212" stroke="#6A53B8" stroke-width="2" stroke-linecap="round" stroke-linejoin="round"/>
<path d="M19.384 1H6.616C5.42834 1.00028 4.28294 1.44085 3.40124 2.23656C2.51954 3.03226 1.96414 4.12659 1.8424 5.308C1.8352 5.3704 1.8304 5.4292 1.822 5.4904C1.7248 6.2992 1 12.3472 1 14.2C1 15.1548 1.37928 16.0705 2.05442 16.7456C2.72955 17.4207 3.64522 17.8 4.6 17.8C5.8 17.8 6.4 17.2 7 16.6L8.6968 14.9032C9.14678 14.4531 9.75713 14.2001 10.3936 14.2H15.6064C16.2429 14.2001 16.8532 14.4531 17.3032 14.9032L19 16.6C19.6 17.2 20.2 17.8 21.4 17.8C22.3548 17.8 23.2705 17.4207 23.9456 16.7456C24.6207 16.0705 25 15.1548 25 14.2C25 12.346 24.2752 6.2992 24.178 5.4904C24.1696 5.4304 24.1648 5.3704 24.1576 5.3092C24.0361 4.12757 23.4809 3.03295 22.5991 2.237C21.7174 1.44105 20.5719 1.00031 19.384 1Z" stroke="#6A53B8" stroke-width="2" stroke-linecap="round" stroke-linejoin="round"/>
</svg>
