<svg width="112" height="104" viewBox="0 0 112 104" fill="none" xmlns="http://www.w3.org/2000/svg">
<path d="M21.1164 96.1036C20.7424 92.8235 20.3768 89.5423 19.9877 86.2639C19.9011 85.5346 19.6669 84.8958 18.771 84.7666C16.9192 84.4993 15.0749 84.1795 13.2233 83.9107C11.2604 83.6257 9.293 83.3721 7.32689 83.11C6.064 82.9416 4.76251 82.917 3.54759 82.5789C2.49704 82.2866 1.54419 81.6432 0.495756 81.2272C0.44336 80.2806 0.44336 79.2619 0.443359 78.1419C0.735475 77.7857 1.04629 77.5492 1.31686 77.2732C4.44229 74.0852 7.5531 70.8828 10.6856 67.7017C12.7875 65.5672 14.9178 63.4606 17.1704 61.3418C20.4754 64.2923 23.7565 67.1556 24.9562 71.5842C25.1058 72.1363 25.3866 72.656 25.6334 73.178C26.5758 75.1719 28.1191 76.5786 30.1564 77.314C32.6198 78.2033 35.1498 78.9082 37.5913 79.7451C34.365 82.9516 31.2011 86.1085 28.0307 89.259C25.7303 91.5449 23.4215 93.8224 21.1164 96.1036Z" fill="#FF646F"/>
<path d="M111.677 81.1974C111.363 81.4965 111.07 81.7444 110.731 81.8823C109.924 82.2115 109.116 82.6191 108.27 82.7588C106.732 83.0125 105.165 83.0943 103.498 83.1629C103.11 82.7481 102.857 82.3953 102.555 82.0921C98.6523 78.1767 94.7397 74.271 90.8365 70.3559C90.1493 69.6665 89.4941 68.9451 88.8413 68.1602C89.2592 67.2829 89.5052 66.3392 90.091 65.7136C91.5433 64.1631 93.1508 62.758 94.7646 61.2988C94.8792 61.3021 94.9251 61.3009 94.9709 61.2998C94.9709 61.2998 94.9528 61.3073 94.9847 61.3429C95.073 61.4295 95.1293 61.4805 95.1857 61.5316C95.1857 61.5316 95.1629 61.5317 95.1984 61.5646C95.2903 61.6479 95.3466 61.6984 95.4029 61.7488C95.4029 61.7488 95.3803 61.7489 95.4157 61.7818C95.5075 61.8652 95.5638 61.9156 95.6202 61.966C95.6202 61.966 95.5975 61.9662 95.6331 61.9992C95.7253 62.0826 95.7818 62.133 95.8384 62.1835C95.8384 62.1835 95.8148 62.1841 95.8506 62.2162C95.9426 62.2992 95.9988 62.3501 96.0549 62.4009C96.0549 62.4009 96.0314 62.4007 96.0671 62.4332C96.1592 62.5165 96.2155 62.5671 96.2719 62.6178C96.2719 62.6178 96.2492 62.6179 96.2847 62.6509C96.3765 62.7342 96.4329 62.7846 96.4892 62.835C96.4892 62.835 96.4665 62.8352 96.502 62.8681C96.5938 62.9514 96.6501 63.0019 96.7065 63.0523C96.7065 63.0523 96.6838 63.0525 96.7196 63.0855C96.8123 63.1688 96.8692 63.2192 96.9261 63.2696C96.9261 63.2696 96.9017 63.271 96.9378 63.3022C97.0297 63.3847 97.0855 63.4361 97.1414 63.4874C97.1414 63.4874 97.117 63.4863 97.1531 63.5187C97.2455 63.6021 97.3019 63.6531 97.3582 63.7041C97.3582 63.7041 97.3354 63.7042 97.371 63.7371C97.4628 63.8204 97.5192 63.8709 97.5755 63.9213C97.5755 63.9213 97.5528 63.9214 97.5882 63.9543C97.6801 64.0377 97.7364 64.0881 97.7927 64.1386C97.7927 64.1386 97.77 64.1387 97.8055 64.1716C97.8973 64.2549 97.9536 64.3054 98.01 64.3558C98.01 64.3558 97.9873 64.356 98.023 64.389C98.1154 64.4724 98.172 64.5228 98.2287 64.5733C98.2287 64.5733 98.2047 64.5742 98.2408 64.606C98.3332 64.6888 98.3895 64.7398 98.4459 64.7908C98.4459 64.7908 98.4213 64.791 98.4577 64.8227C98.5504 64.9056 98.6067 64.9568 98.6631 65.0081C98.6631 65.0081 98.6386 65.0083 98.6749 65.04C98.7676 65.1229 98.824 65.1741 98.8803 65.2253C98.8803 65.2253 98.8558 65.2255 98.8922 65.2572C98.9849 65.3401 99.0412 65.3913 99.0976 65.4426C99.0976 65.4426 99.0731 65.4428 99.1094 65.4745C99.2021 65.5574 99.2585 65.6086 99.3148 65.6598C99.3148 65.6598 99.2903 65.66 99.3267 65.6917C99.4194 65.7746 99.4757 65.8258 99.5321 65.8771C99.5321 65.8771 99.5076 65.8773 99.5439 65.909C99.6366 65.9919 99.693 66.0431 99.7493 66.0943C99.7493 66.0943 99.7248 66.0945 99.7612 66.1262C99.8539 66.2091 99.9102 66.2604 99.9666 66.3116C99.9666 66.3116 99.9421 66.3118 99.9784 66.3435C100.071 66.4264 100.127 66.4776 100.184 66.5288C100.184 66.5288 100.159 66.529 100.196 66.5607C100.288 66.6436 100.345 66.6949 100.401 66.7461C100.401 66.7461 100.377 66.7463 100.413 66.778C100.506 66.8609 100.562 66.9121 100.618 66.9633C100.618 66.9633 100.594 66.9635 100.63 66.9952C100.723 67.0781 100.779 67.1294 100.836 67.1806C100.836 67.1806 100.811 67.1808 100.847 67.2125C100.94 67.2954 100.996 67.3466 101.053 67.3978C101.053 67.3978 101.028 67.398 101.065 67.4297C101.157 67.5127 101.214 67.5639 101.27 67.6151C101.27 67.6151 101.246 67.6153 101.282 67.647C101.375 67.7299 101.431 67.7811 101.487 67.8323C101.487 67.8323 101.463 67.8325 101.499 67.8642C101.592 67.9472 101.648 67.9984 101.705 68.0496C101.705 68.0496 101.68 68.0498 101.716 68.0815C101.809 68.1644 101.865 68.2156 101.922 68.2668C101.922 68.2668 101.897 68.267 101.934 68.2988C102.026 68.3817 102.083 68.4329 102.139 68.4841C102.139 68.4841 102.115 68.4843 102.151 68.516C102.244 68.599 102.3 68.6501 102.356 68.7013C102.356 68.7013 102.332 68.7013 102.368 68.733C102.459 68.8158 102.514 68.8668 102.57 68.9179C102.57 68.9179 102.549 68.9162 102.582 68.9521C102.673 69.0362 102.73 69.0845 102.787 69.1328C102.787 69.1328 102.769 69.1328 102.801 69.17C102.89 69.2548 102.947 69.3024 103.004 69.35C103.004 69.35 102.987 69.35 103.018 69.3873C103.107 69.4721 103.164 69.5196 103.221 69.5672C103.221 69.5672 103.204 69.5673 103.236 69.6045C103.325 69.6893 103.382 69.7369 103.439 69.7845C103.439 69.7845 103.421 69.7845 103.453 69.8218C103.542 69.9066 103.599 69.9541 103.656 70.0017C103.656 70.0017 103.638 70.0018 103.67 70.039C103.759 70.1238 103.816 70.1714 103.873 70.219C103.873 70.219 103.856 70.219 103.887 70.2563C103.976 70.3411 104.033 70.3887 104.09 70.4362C104.09 70.4362 104.073 70.4363 104.105 70.4735C104.194 70.5584 104.251 70.6059 104.308 70.6535C104.308 70.6535 104.29 70.6535 104.322 70.6908C104.411 70.7756 104.468 70.8232 104.525 70.8707C104.525 70.8707 104.507 70.8708 104.539 70.9081C104.628 70.9929 104.685 71.0404 104.742 71.0879C104.742 71.0879 104.725 71.088 104.756 71.1253C104.845 71.2101 104.902 71.2577 104.959 71.3052C104.959 71.3052 104.942 71.3053 104.974 71.3426C105.063 71.4274 105.12 71.4749 105.177 71.5224C105.177 71.5224 105.159 71.5225 105.191 71.5598C105.28 71.6446 105.337 71.6922 105.394 71.7397C105.394 71.7397 105.376 71.7398 105.408 71.7771C105.497 71.8619 105.554 71.9094 105.611 71.957C105.611 71.957 105.594 71.957 105.625 71.9943C105.714 72.0791 105.771 72.1267 105.828 72.1742C105.828 72.1742 105.811 72.1743 105.843 72.2116C105.932 72.2964 105.989 72.3439 106.046 72.3915C106.046 72.3915 106.028 72.3916 106.06 72.4288C106.149 72.5136 106.206 72.5612 106.263 72.6088C106.263 72.6088 106.245 72.6088 106.277 72.646C106.366 72.7308 106.423 72.7784 106.48 72.826C106.48 72.826 106.463 72.8261 106.494 72.8633C106.583 72.9481 106.64 72.9957 106.698 73.0433C106.698 73.0433 106.68 73.0433 106.712 73.0805C106.801 73.1653 106.858 73.2129 106.915 73.2605C106.915 73.2605 106.897 73.2606 106.929 73.2978C107.018 73.3826 107.075 73.4302 107.132 73.4778C107.132 73.4778 107.114 73.4779 107.146 73.515C107.235 73.5998 107.292 73.6474 107.349 73.695C107.349 73.695 107.332 73.6951 107.364 73.7323C107.452 73.8171 107.509 73.8647 107.567 73.9123C107.567 73.9123 107.549 73.9123 107.581 73.9496C107.67 74.0343 107.727 74.0819 107.784 74.1295C107.784 74.1295 107.766 74.1296 107.798 74.1668C107.887 74.2516 107.944 74.2992 108.001 74.3468C108.001 74.3468 107.983 74.3469 108.015 74.3841C108.104 74.4689 108.161 74.5164 108.218 74.564C108.218 74.564 108.201 74.5641 108.232 74.6013C108.321 74.6861 108.378 74.7337 108.435 74.7812C108.435 74.7812 108.418 74.7813 108.45 74.8186C108.539 74.9034 108.596 74.9509 108.653 74.9985C108.653 74.9985 108.635 74.9986 108.667 75.0358C108.756 75.1207 108.813 75.1682 108.87 75.2157C108.87 75.2157 108.853 75.2158 108.884 75.2531C108.973 75.3379 109.03 75.3854 109.087 75.433C109.087 75.433 109.07 75.433 109.102 75.4703C109.19 75.5552 109.247 75.6027 109.304 75.6502C109.304 75.6502 109.287 75.6503 109.319 75.6876C109.408 75.7724 109.465 75.8199 109.522 75.8675C109.522 75.8675 109.504 75.8675 109.536 75.9048C109.625 75.9897 109.682 76.0372 109.739 76.0847C109.739 76.0847 109.722 76.0848 109.753 76.1221C109.842 76.2069 109.899 76.2544 109.956 76.302C109.956 76.302 109.939 76.302 109.97 76.3394C110.059 76.4242 110.116 76.4717 110.173 76.5192C110.173 76.5192 110.157 76.5175 110.181 76.5572C110.24 76.66 110.286 76.7146 110.341 76.7607C110.752 77.2344 111.163 77.7082 111.625 78.1109C111.677 79.0586 111.677 80.0773 111.677 81.1974Z" fill="#FC2B3A"/>
<path d="M37.6511 79.6926C35.15 78.9079 32.62 78.203 30.1565 77.3137C28.1193 76.5783 26.5759 75.1717 25.6336 73.1778C25.3868 72.6557 25.106 72.136 24.9564 71.5839C23.7566 67.1553 20.4756 64.292 17.2379 61.3109C14.9447 59.0303 15.1035 56.1994 15.2701 53.3801C15.4003 51.1787 15.9664 49.0213 15.0549 46.791C14.2533 44.8298 13.8424 42.7095 13.2511 40.6618C12.6371 38.5355 13.2749 36.5934 14.2858 34.7925C15.2625 33.0526 16.5669 31.4926 17.4955 29.7312C17.9992 28.7758 18.0121 27.5638 18.2595 26.4706C18.7611 24.2536 19.1457 21.9997 19.8166 19.8348C20.3974 17.9605 22.0051 16.8723 23.6379 15.9178C25.1513 15.0331 26.7523 14.2765 28.1756 13.2673C29.0394 12.6548 29.6742 11.6978 30.3496 10.8461C31.5322 9.35492 32.5708 7.73769 33.8506 6.33883C34.9803 5.10411 36.5189 4.35883 38.206 4.19545C40.5518 3.96827 42.9277 4.0053 45.2586 3.69051C46.4675 3.52723 47.6204 2.88222 48.7749 2.39816C50.58 1.64131 52.3649 0.836362 54.2817 0.125977C54.5932 0.365749 54.7626 0.561331 54.9723 0.692373C57.7171 2.40767 60.0501 4.60883 62.1997 6.99211C63.3223 8.23676 64.2342 9.6714 65.1465 10.9932C63.6307 10.7112 62.2117 10.4448 60.7884 10.2037C57.5209 9.65024 54.2367 9.60037 50.9723 10.1368C42.8368 11.4738 36.0123 15.22 30.7307 21.5777C24.6432 28.9054 22.118 37.361 23.2566 46.8274C24.1894 54.5822 27.4638 61.2561 33.1923 66.5839C42.3708 75.1202 53.0915 77.7606 65.2091 74.503C67.0491 74.0084 68.8163 73.2431 70.6135 72.6847C69.3275 75.2582 68.1319 77.8 66.734 80.2251C65.6964 82.0251 64.3962 83.6736 63.2129 85.3895C61.2222 85.0226 59.2435 84.5362 57.2362 84.3342C56.0615 84.216 54.8368 84.5202 53.6424 84.6896C51.5568 84.9853 49.4841 85.3887 47.3915 85.6088C46.6624 85.6854 45.8903 85.3535 45.0085 85.1308C44.2571 84.7003 43.5831 84.4146 43.0227 83.9817C41.2097 82.5811 39.4385 81.1264 37.6511 79.6926Z" fill="#FFE287"/>
<path d="M65.2412 11.0196C64.2342 9.67081 63.3222 8.23617 62.1996 6.99152C60.05 4.60824 57.7171 2.40708 54.9722 0.691784C54.7625 0.560742 54.5932 0.36516 54.3647 0.140811C56.9094 -0.354157 59.2069 0.529943 61.455 1.63719C61.8966 1.85473 62.3686 2.03337 62.765 2.31632C64.4091 3.48999 66.3376 3.54221 68.2248 3.72854C69.505 3.85493 70.7974 3.97324 72.0798 3.93723C75.0677 3.85333 77.2914 5.18407 79.0205 7.49353C80.1602 9.01567 81.1266 10.694 82.4238 12.0625C83.3101 12.9976 84.6351 13.5154 85.76 14.2261C87.3301 15.2181 89.0127 16.0762 90.4305 17.2526C91.7324 18.3328 92.4711 19.9047 92.7769 21.6162C93.1415 23.6568 93.3527 25.7406 93.917 27.7242C94.2903 29.0366 95.1578 30.211 95.8219 31.4376C96.6874 33.0362 97.6591 34.5842 98.422 36.2296C99.2339 37.9809 99.0099 39.8278 98.4667 41.6298C98.0322 43.0712 97.6118 44.5198 97.098 45.9335C96.6848 47.0702 96.4664 48.1305 96.6275 49.4043C96.9148 51.6768 96.8813 53.9961 96.8872 56.2961C96.8918 58.0818 96.2413 59.6568 94.8988 61.041C94.7575 61.1697 94.7167 61.2248 94.6954 61.2943C93.1502 62.7578 91.5427 64.163 90.0905 65.7135C89.5046 66.339 89.2586 67.2828 88.7904 68.2155C88.0195 69.8963 87.4467 71.5222 86.5727 72.9657C85.8434 74.1704 84.9387 75.4377 83.7896 76.1759C82.3992 77.069 80.7054 77.5712 79.0785 77.9956C76.6967 78.617 74.5793 79.5787 72.6819 81.2044C70.9656 82.6751 69.0069 83.8629 67.1551 85.1755C65.9014 85.2591 64.6478 85.3427 63.3035 85.4076C64.3961 83.673 65.6964 82.0245 66.7339 80.2245C68.1319 77.7994 69.3274 75.2576 70.6144 72.6885C70.619 72.6111 70.6098 72.6112 70.6524 72.5819C70.7473 72.5066 70.792 72.4543 70.8652 72.3492C70.9597 72.2511 71.0184 72.1994 71.1411 72.116C74.3084 70.4601 77.1281 68.4247 79.5386 65.8975C87.0364 58.0365 90.1041 48.6049 88.5523 37.9209C86.9745 27.0568 81.0613 18.9627 71.4443 13.6707C69.6308 12.6727 67.5747 12.1156 65.5971 11.3129C65.4562 11.187 65.3487 11.1033 65.2412 11.0196Z" fill="#FFD64D"/>
<path d="M106.464 72.7674C106.423 72.7787 106.366 72.7311 106.277 72.6375C106.313 72.6305 106.381 72.6695 106.464 72.7674Z" fill="#FE4750"/>
<path d="M103.205 69.5085C103.164 69.5199 103.106 69.4723 103.018 69.3787C103.054 69.3717 103.122 69.4107 103.205 69.5085Z" fill="#FE4750"/>
<path d="M106.247 72.5505C106.206 72.5619 106.149 72.5143 106.06 72.4207C106.096 72.4137 106.164 72.4527 106.247 72.5505Z" fill="#FE4750"/>
<path d="M106.03 72.3327C105.988 72.3441 105.931 72.2965 105.842 72.203C105.878 72.1959 105.946 72.2349 106.03 72.3327Z" fill="#FE4750"/>
<path d="M105.813 72.1149C105.771 72.1263 105.714 72.0787 105.625 71.9852C105.661 71.9781 105.729 72.0171 105.813 72.1149Z" fill="#FE4750"/>
<path d="M105.595 71.8981C105.554 71.9095 105.497 71.8619 105.408 71.7684C105.444 71.7613 105.512 71.8003 105.595 71.8981Z" fill="#FE4750"/>
<path d="M105.378 71.6813C105.336 71.6927 105.279 71.6451 105.19 71.5516C105.227 71.5445 105.295 71.5835 105.378 71.6813Z" fill="#FE4750"/>
<path d="M105.161 71.4635C105.119 71.4749 105.062 71.4274 104.973 71.3338C105.009 71.3267 105.077 71.3657 105.161 71.4635Z" fill="#FE4750"/>
<path d="M104.943 71.2458C104.902 71.2571 104.845 71.2096 104.756 71.116C104.792 71.109 104.86 71.1479 104.943 71.2458Z" fill="#FE4750"/>
<path d="M104.727 71.029C104.685 71.0403 104.628 70.9928 104.539 70.8992C104.575 70.8922 104.643 70.9311 104.727 71.029Z" fill="#FE4750"/>
<path d="M104.509 70.8122C104.467 70.8235 104.41 70.776 104.321 70.6825C104.357 70.6754 104.425 70.7143 104.509 70.8122Z" fill="#FE4750"/>
<path d="M104.292 70.5944C104.25 70.6058 104.193 70.5582 104.104 70.4647C104.141 70.4576 104.209 70.4966 104.292 70.5944Z" fill="#FE4750"/>
<path d="M104.074 70.3776C104.033 70.389 103.976 70.3414 103.887 70.2479C103.923 70.2408 103.991 70.2798 104.074 70.3776Z" fill="#FE4750"/>
<path d="M103.858 70.1599C103.816 70.1712 103.759 70.1237 103.67 70.0301C103.706 70.023 103.774 70.062 103.858 70.1599Z" fill="#FE4750"/>
<path d="M103.64 69.9431C103.598 69.9544 103.541 69.9069 103.452 69.8133C103.488 69.8063 103.556 69.8452 103.64 69.9431Z" fill="#FE4750"/>
<path d="M103.423 69.7253C103.381 69.7367 103.324 69.6891 103.235 69.5955C103.272 69.5885 103.34 69.6274 103.423 69.7253Z" fill="#FE4750"/>
<path d="M108.637 74.9391C108.595 74.9505 108.538 74.903 108.449 74.8094C108.485 74.8023 108.553 74.8413 108.637 74.9391Z" fill="#FE4750"/>
<path d="M94.7641 61.2986C94.7168 61.2247 94.7576 61.1696 94.8661 61.1094C94.9252 61.1242 94.9361 61.1588 94.9587 61.2465C94.9246 61.3007 94.8787 61.3019 94.7641 61.2986Z" fill="#FE4750"/>
<path d="M110.349 76.6982C110.285 76.7146 110.24 76.66 110.181 76.549C110.224 76.5459 110.291 76.5908 110.349 76.6982Z" fill="#FE4750"/>
<path d="M110.158 76.4605C110.116 76.4719 110.059 76.4244 109.97 76.3309C110.006 76.3238 110.074 76.3627 110.158 76.4605Z" fill="#FE4750"/>
<path d="M109.94 76.2438C109.898 76.2551 109.841 76.2076 109.752 76.1141C109.789 76.107 109.857 76.1459 109.94 76.2438Z" fill="#FE4750"/>
<path d="M109.723 76.025C109.682 76.0364 109.625 75.9889 109.536 75.8953C109.572 75.8883 109.64 75.9272 109.723 76.025Z" fill="#FE4750"/>
<path d="M109.505 75.8082C109.464 75.8196 109.407 75.7721 109.318 75.6785C109.354 75.6715 109.422 75.7104 109.505 75.8082Z" fill="#FE4750"/>
<path d="M109.289 75.5914C109.247 75.6028 109.19 75.5553 109.101 75.4618C109.137 75.4547 109.205 75.4936 109.289 75.5914Z" fill="#FE4750"/>
<path d="M109.071 75.3746C109.029 75.386 108.972 75.3385 108.883 75.245C108.919 75.2379 108.987 75.2768 109.071 75.3746Z" fill="#FE4750"/>
<path d="M108.854 75.1559C108.812 75.1673 108.755 75.1198 108.667 75.0262C108.703 75.0191 108.771 75.0581 108.854 75.1559Z" fill="#FE4750"/>
<path d="M106.682 72.9842C106.64 72.9955 106.583 72.9479 106.494 72.8543C106.53 72.8473 106.598 72.8863 106.682 72.9842Z" fill="#FE4750"/>
<path d="M108.42 74.7224C108.378 74.7337 108.321 74.6862 108.232 74.5926C108.268 74.5855 108.336 74.6245 108.42 74.7224Z" fill="#FE4750"/>
<path d="M108.202 74.5047C108.161 74.516 108.104 74.4684 108.015 74.3748C108.051 74.3678 108.119 74.4068 108.202 74.5047Z" fill="#FE4750"/>
<path d="M107.985 74.2879C107.943 74.2992 107.886 74.2516 107.797 74.158C107.833 74.151 107.902 74.19 107.985 74.2879Z" fill="#FE4750"/>
<path d="M107.768 74.0701C107.726 74.0814 107.669 74.0338 107.58 73.9403C107.616 73.9332 107.684 73.9722 107.768 74.0701Z" fill="#FE4750"/>
<path d="M107.55 73.8533C107.509 73.8647 107.452 73.8171 107.363 73.7235C107.399 73.7164 107.467 73.7554 107.55 73.8533Z" fill="#FE4750"/>
<path d="M107.333 73.6365C107.292 73.6479 107.234 73.6003 107.146 73.5067C107.182 73.4996 107.25 73.5386 107.333 73.6365Z" fill="#FE4750"/>
<path d="M107.116 73.4188C107.074 73.4301 107.017 73.3825 106.928 73.2889C106.964 73.2819 107.032 73.3208 107.116 73.4188Z" fill="#FE4750"/>
<path d="M106.899 73.201C106.857 73.2123 106.8 73.1647 106.711 73.0711C106.748 73.0641 106.816 73.1031 106.899 73.201Z" fill="#FE4750"/>
<path d="M96.9076 63.2109C96.869 63.2195 96.8121 63.1692 96.7192 63.0745C96.752 63.0707 96.8206 63.1113 96.9076 63.2109Z" fill="#FE4750"/>
<path d="M98.8616 65.166C98.8235 65.1739 98.7672 65.1226 98.6743 65.0275C98.7063 65.0247 98.7748 65.0659 98.8616 65.166Z" fill="#FE4750"/>
<path d="M98.6443 64.9493C98.6063 64.9571 98.5499 64.9059 98.457 64.8107C98.489 64.8079 98.5575 64.8491 98.6443 64.9493Z" fill="#FE4750"/>
<path d="M98.4271 64.7317C98.389 64.7397 98.3326 64.6887 98.2397 64.5939C98.2717 64.591 98.3403 64.6319 98.4271 64.7317Z" fill="#FE4750"/>
<path d="M98.2105 64.5137C98.1717 64.5224 98.115 64.472 98.0225 64.3772C98.0553 64.3734 98.1239 64.414 98.2105 64.5137Z" fill="#FE4750"/>
<path d="M97.9924 64.2968C97.9534 64.3055 97.8971 64.2551 97.8052 64.1604C97.8381 64.1566 97.9066 64.1972 97.9924 64.2968Z" fill="#FE4750"/>
<path d="M97.7746 64.0791C97.7357 64.0878 97.6793 64.0373 97.5874 63.9426C97.6203 63.9389 97.6888 63.9794 97.7746 64.0791Z" fill="#FE4750"/>
<path d="M97.5578 63.8623C97.5189 63.871 97.4626 63.8205 97.3706 63.7258C97.4035 63.7221 97.472 63.7626 97.5578 63.8623Z" fill="#FE4750"/>
<path d="M97.34 63.6454C97.3011 63.6536 97.2448 63.6026 97.1528 63.507C97.1857 63.5037 97.2542 63.5449 97.34 63.6454Z" fill="#FE4750"/>
<path d="M97.123 63.4285C97.0851 63.4362 97.0292 63.3848 96.9365 63.2901C96.9681 63.2877 97.0366 63.3286 97.123 63.4285Z" fill="#FE4750"/>
<path d="M99.0789 65.3838C99.0408 65.3916 98.9845 65.3404 98.8916 65.2452C98.9236 65.2425 98.9921 65.2836 99.0789 65.3838Z" fill="#FE4750"/>
<path d="M96.6887 62.9931C96.6497 63.0018 96.5934 62.9514 96.5015 62.8567C96.5344 62.8529 96.6029 62.8935 96.6887 62.9931Z" fill="#FE4750"/>
<path d="M96.4714 62.7763C96.4324 62.785 96.3761 62.7346 96.2842 62.6399C96.3171 62.6361 96.3856 62.6766 96.4714 62.7763Z" fill="#FE4750"/>
<path d="M96.2538 62.5592C96.2148 62.5678 96.1584 62.5171 96.0664 62.4221C96.0993 62.4185 96.1678 62.4593 96.2538 62.5592Z" fill="#FE4750"/>
<path d="M96.037 62.3427C95.9986 62.3509 95.9424 62.3 95.8501 62.2052C95.8824 62.2021 95.9509 62.2429 96.037 62.3427Z" fill="#FE4750"/>
<path d="M95.82 62.1241C95.7812 62.1327 95.7246 62.0823 95.6323 61.9875C95.6652 61.9838 95.7338 62.0244 95.82 62.1241Z" fill="#FE4750"/>
<path d="M95.6023 61.9062C95.5633 61.9149 95.5069 61.8645 95.415 61.7698C95.448 61.766 95.5165 61.8066 95.6023 61.9062Z" fill="#FE4750"/>
<path d="M95.385 61.6894C95.346 61.6981 95.2897 61.6477 95.1978 61.553C95.2306 61.5492 95.2991 61.5898 95.385 61.6894Z" fill="#FE4750"/>
<path d="M95.1677 61.4718C95.1287 61.48 95.0724 61.4289 94.9805 61.3332C95.0133 61.3299 95.0818 61.3712 95.1677 61.4718Z" fill="#FE4750"/>
<path d="M101.034 67.3389C100.996 67.3467 100.94 67.2955 100.847 67.2003C100.879 67.1975 100.947 67.2387 101.034 67.3389Z" fill="#FE4750"/>
<path d="M102.771 69.0741C102.729 69.085 102.672 69.0367 102.583 68.9421C102.619 68.9355 102.687 68.9752 102.771 69.0741Z" fill="#FE4750"/>
<path d="M102.552 68.8589C102.514 68.8669 102.458 68.8158 102.367 68.7209C102.399 68.7179 102.467 68.7589 102.552 68.8589Z" fill="#FE4750"/>
<path d="M102.338 68.6425C102.3 68.6504 102.243 68.5992 102.15 68.504C102.182 68.5012 102.251 68.5424 102.338 68.6425Z" fill="#FE4750"/>
<path d="M102.12 68.4258C102.082 68.4336 102.025 68.3824 101.933 68.2872C101.965 68.2844 102.033 68.3256 102.12 68.4258Z" fill="#FE4750"/>
<path d="M101.903 68.207C101.865 68.2149 101.809 68.1637 101.716 68.0685C101.748 68.0657 101.816 68.1069 101.903 68.207Z" fill="#FE4750"/>
<path d="M101.686 67.9903C101.648 67.9981 101.591 67.9469 101.499 67.8517C101.531 67.8489 101.599 67.8901 101.686 67.9903Z" fill="#FE4750"/>
<path d="M101.469 67.7735C101.43 67.7813 101.374 67.7301 101.281 67.6349C101.313 67.6321 101.382 67.6733 101.469 67.7735Z" fill="#FE4750"/>
<path d="M101.251 67.5567C101.213 67.5645 101.157 67.5133 101.064 67.4181C101.096 67.4153 101.164 67.4565 101.251 67.5567Z" fill="#FE4750"/>
<path d="M102.988 69.2907C102.947 69.3021 102.89 69.2545 102.801 69.161C102.837 69.1539 102.905 69.1929 102.988 69.2907Z" fill="#FE4750"/>
<path d="M100.817 67.1211C100.779 67.1289 100.722 67.0777 100.629 66.9826C100.661 66.9798 100.73 67.0209 100.817 67.1211Z" fill="#FE4750"/>
<path d="M100.599 66.9043C100.561 66.9121 100.505 66.8609 100.412 66.7658C100.444 66.763 100.513 66.8041 100.599 66.9043Z" fill="#FE4750"/>
<path d="M100.383 66.6875C100.345 66.6953 100.288 66.6441 100.195 66.549C100.227 66.5462 100.296 66.5873 100.383 66.6875Z" fill="#FE4750"/>
<path d="M100.165 66.4698C100.127 66.4776 100.07 66.4264 99.9775 66.3312C100.01 66.3284 100.078 66.3696 100.165 66.4698Z" fill="#FE4750"/>
<path d="M99.948 66.252C99.91 66.2598 99.8536 66.2086 99.7607 66.1134C99.7927 66.1106 99.8613 66.1518 99.948 66.252Z" fill="#FE4750"/>
<path d="M99.7308 66.0352C99.6927 66.043 99.6363 65.9918 99.5435 65.8966C99.5754 65.8938 99.644 65.935 99.7308 66.0352Z" fill="#FE4750"/>
<path d="M99.5135 65.8184C99.4754 65.8262 99.419 65.775 99.3262 65.6798C99.3582 65.677 99.4267 65.7182 99.5135 65.8184Z" fill="#FE4750"/>
<path d="M99.2962 65.6006C99.2581 65.6084 99.2018 65.5572 99.1089 65.462C99.1409 65.4593 99.2094 65.5004 99.2962 65.6006Z" fill="#FE4750"/>
<path d="M67.2197 85.2096C69.007 83.863 70.9657 82.6751 72.6821 81.2045C74.5794 79.5787 76.6968 78.6171 79.0786 77.9957C80.7055 77.5713 82.3993 77.0691 83.7897 76.176C84.9388 75.4378 85.8435 74.1704 86.5729 72.9658C87.4468 71.5223 88.0196 69.8964 88.7733 68.2939C89.4936 68.9451 90.1488 69.6665 90.8361 70.3558C94.7393 74.271 98.6519 78.1767 102.555 82.0921C102.857 82.3952 103.109 82.748 103.402 83.1478C102.629 83.3741 101.845 83.5703 101.048 83.6791C98.7652 83.9908 96.4699 84.2193 94.1943 84.5757C92.8779 84.7819 92.1884 84.9369 92.0757 86.7687C91.8975 89.6653 91.3953 92.5413 91.0557 95.4291C90.8769 96.949 90.7931 98.4809 90.5867 99.9965C90.4746 100.82 90.3484 101.704 89.9626 102.416C88.9186 104.344 86.5671 104.525 84.9266 102.886C79.0432 97.0079 73.1646 91.1249 67.2197 85.2096Z" fill="#FF646F"/>
<path d="M37.5916 79.7441C39.4385 81.1257 41.2098 82.5804 43.0228 83.981C43.5831 84.4138 44.2572 84.6995 44.9192 85.113C39.0396 91.0777 33.1213 96.9835 27.1992 102.885C25.7745 104.305 23.4205 104.354 22.3996 102.871C21.9224 102.178 21.6879 101.261 21.5397 100.411C21.3021 99.0491 21.2278 97.6587 21.1006 96.1915C23.4217 93.8214 25.7306 91.5439 28.0309 89.2579C31.2013 86.1075 34.3652 82.9505 37.5916 79.7441Z" fill="#FC2C3B"/>
<path d="M71.0774 72.1487C71.0188 72.2004 70.9601 72.2521 70.8192 72.3754C70.675 72.487 70.6327 72.542 70.6102 72.6122C70.6102 72.6122 70.6194 72.612 70.6185 72.6077C68.8167 73.2435 67.0495 74.0088 65.2095 74.5034C53.0918 77.761 42.3711 75.1206 33.1927 66.5843C27.4642 61.2565 24.1898 54.5826 23.257 46.8277C22.1184 37.3614 24.6435 28.9058 30.731 21.5781C36.0127 15.2204 42.8372 11.4742 50.9726 10.1372C54.237 9.60074 57.5212 9.6506 60.7887 10.2041C62.2121 10.4452 63.6311 10.7116 65.1469 10.9935C65.3491 11.1042 65.4566 11.1879 65.6367 11.3738C72.6477 21.6636 75.4489 33.1023 75.7962 45.2447C75.8742 47.9725 75.533 50.7112 75.4078 53.4459C75.2167 57.6221 74.3351 61.6741 73.1773 65.6687C72.5456 67.8485 71.7817 69.99 71.0774 72.1487ZM52.5886 59.0875C52.7752 61.566 54.6026 63.1382 57.2143 63.0672C59.4482 63.0064 61.261 61.2653 61.2664 59.0741C61.2857 51.1498 61.2747 43.2255 61.2707 35.3012C61.2706 35.05 61.2225 34.7988 61.2039 34.4009C61.2045 34.2541 61.205 34.1073 61.2401 33.8382C61.2427 33.796 61.2453 33.7537 61.1894 33.5429C61.1526 32.828 61.0728 32.1121 61.0889 31.3984C61.114 30.2843 61.2767 29.1699 61.2504 28.0587C61.2053 26.1464 60.5473 24.0797 57.7774 23.883C54.8655 23.6762 51.9147 23.6229 49.0087 23.853C46.7331 24.0332 45.2049 26.0351 45.4323 27.9836C45.6238 29.6233 47.3357 31.7706 49.8951 31.5599C50.7462 31.4899 51.6079 31.5489 52.5952 31.5489C52.5952 32.1587 52.5947 32.6188 52.5953 33.0789C52.6057 41.6194 52.6161 50.1599 52.6029 58.8035C52.6029 58.8035 52.6026 58.9093 52.5886 59.0875Z" fill="#FDB440"/>
<path d="M71.1413 72.1159C71.7815 69.9889 72.5453 67.8474 73.1771 65.6676C74.3349 61.673 75.2165 57.6211 75.4076 53.4449C75.5328 50.7101 75.874 47.9714 75.796 45.2437C75.4487 33.1012 72.6475 21.6626 65.6699 11.415C67.5749 12.1155 69.631 12.6726 71.4445 13.6706C81.0615 18.9627 86.9747 27.0567 88.5525 37.9208C90.1043 48.6048 87.0366 58.0364 79.5388 65.8974C77.1283 68.4246 74.3086 70.4601 71.1413 72.1159Z" fill="#FE9900"/>
<path d="M70.6523 72.5819C70.6322 72.5411 70.6744 72.4861 70.7828 72.4209C70.7919 72.4543 70.7471 72.5066 70.6523 72.5819Z" fill="#FFE287"/>
<path d="M61.2255 34.0396C61.2249 34.1871 61.2244 34.3347 61.1514 34.6038C60.9889 35.4675 60.9159 36.2122 60.8061 36.9515C60.0293 42.179 58.8088 47.2978 56.5243 52.0923C55.4051 54.4413 53.9903 56.6519 52.6621 58.9213C52.6149 58.9175 52.5838 58.7041 52.5838 58.7041C52.5732 50.1177 52.4989 41.7397 52.4884 33.1532C52.4878 32.6906 52.4883 32.228 52.4883 31.6149C51.4865 31.6149 50.6121 31.5556 49.7485 31.626C47.1513 31.8378 45.4142 29.6791 45.22 28.0304C44.9892 26.0716 46.5399 24.0588 48.849 23.8777C51.7978 23.6463 54.7921 23.7 57.7468 23.9079C60.5575 24.1056 61.2252 26.1834 61.271 28.106C61.2976 29.2232 61.1325 30.3435 61.1071 31.4637C61.0907 32.1812 61.1717 32.9009 61.2137 33.7298C61.1802 33.9076 61.1826 33.9741 61.2255 34.0396Z" fill="#FFF1C7"/>
<path d="M52.6926 58.1609C53.955 55.8998 55.4693 54.2518 56.5723 51.9155C58.8236 47.1465 60.0264 42.0551 60.7919 36.8555C60.9002 36.1202 60.9721 35.3795 61.1286 34.5938C61.2222 34.7974 61.2702 35.0487 61.2704 35.2999C61.2743 43.2242 61.2854 51.1485 61.266 59.0728C61.2607 61.264 59.4479 63.0051 57.214 63.0659C54.6023 63.1369 52.7219 61.6225 52.584 59.0299C52.584 58.8126 52.6596 58.2178 52.6926 58.1609Z" fill="#FFE287"/>
<path d="M61.2223 33.8991C61.1627 33.8951 61.1604 33.8289 61.2226 33.7363C61.2447 33.7533 61.2421 33.7956 61.2223 33.8991Z" fill="#FFE287"/>
<path d="M52.766 58.7093C52.7796 58.77 52.7373 58.8188 52.6438 58.8843C52.6021 58.9093 52.6025 58.8035 52.6143 58.752C52.6262 58.7004 52.7195 58.7054 52.766 58.7093Z" fill="#FFEBB9"/>
</svg>
