<svg width="28" height="28" viewBox="0 0 28 28" fill="none" xmlns="http://www.w3.org/2000/svg">
<path d="M26.6127 9.95402C25.9054 9.35023 25.0198 9.02246 24.1228 9.02246H23.2142H19.9422H18.0791V4.65793C18.0791 2.82357 17.5444 1.50099 16.4863 0.724687C14.8129 -0.50589 12.507 0.195654 12.4093 0.230156C12.1218 0.322162 11.9262 0.586679 11.9262 0.885698V5.76775C11.9262 7.3606 11.1672 8.71194 9.66636 9.78726C8.54504 10.5923 7.40071 10.9431 7.27996 10.9833L7.1132 11.0236C6.86593 10.6038 6.41165 10.322 5.88837 10.322H1.42034C0.63829 10.322 0 10.9603 0 11.7424V24.8762C0 25.6583 0.63829 26.2965 1.42034 26.2965H5.89987C6.3369 26.2965 6.73367 26.0953 6.99244 25.7848C7.71123 26.5496 8.72905 27.0268 9.83312 27.0268H13.6226H14.0136H21.7824C24.4218 27.0268 26.1066 25.6468 26.4057 23.2316L27.9525 13.6342C28.1653 12.2542 27.6535 10.8396 26.6127 9.95402ZM5.93437 24.8762C5.93437 24.8992 5.91712 24.9165 5.89412 24.9165H1.42034C1.39734 24.9165 1.38009 24.8992 1.38009 24.8762V11.7424C1.38009 11.7194 1.39734 11.7021 1.42034 11.7021H5.89987C5.92287 11.7021 5.94012 11.7194 5.94012 11.7424V24.8762H5.93437ZM26.5782 13.4157L25.0371 23.0303C25.0371 23.0361 25.0371 23.0476 25.0313 23.0591C24.8186 24.7784 23.726 25.6525 21.7766 25.6525H14.0079H13.6169H9.82737C8.60254 25.6525 7.53872 24.7382 7.34896 23.5306C7.34321 23.4904 7.33171 23.4501 7.32021 23.4099V12.3922L7.61923 12.3232C7.63073 12.3232 7.63648 12.3174 7.64798 12.3174C7.70548 12.3002 9.06832 11.9149 10.4427 10.9373C12.323 9.60324 13.3121 7.81488 13.3121 5.76775V1.43773C13.9101 1.33998 14.9337 1.28822 15.6755 1.84026C16.354 2.34054 16.699 3.28935 16.699 4.65793V9.70675C16.699 10.0863 17.0096 10.3968 17.3891 10.3968H19.9422H23.2142H24.1228C24.692 10.3968 25.2613 10.6096 25.7156 11.0006C26.3942 11.5814 26.7277 12.5072 26.5782 13.4157Z" fill="#6A53B8"/>
</svg>
