<svg width="31" height="38" viewBox="0 0 31 38" fill="none" xmlns="http://www.w3.org/2000/svg">
<path d="M20.9669 0.890051C20.988 0.932187 21.3883 1.65904 21.8623 2.50177C22.7366 4.05029 23.7269 6.08337 24.1166 7.13678C24.559 8.35874 24.5907 8.40088 25.0331 8.40088C25.5177 8.40088 25.7705 8.16913 25.5703 7.92684C25.4966 7.84257 25.465 7.70563 25.4966 7.61082C25.5387 7.52655 25.5177 7.43174 25.465 7.40014C25.2754 7.28426 25.3596 7.12625 25.5914 7.15785C25.7178 7.17892 25.8863 7.30533 25.9496 7.43174C26.0128 7.56868 26.1181 7.7267 26.1813 7.7899C26.3393 7.94791 26.4552 7.68456 26.3077 7.50548C26.1392 7.2948 26.4552 7.16839 26.6764 7.34747C26.8028 7.45281 26.9503 7.36854 27.5402 6.84183C28.7727 5.75681 29.4363 4.99836 29.5101 4.6086C29.5522 4.40845 29.6365 4.12403 29.7102 3.99762C29.8156 3.7764 29.7945 3.72373 29.5838 3.55518C29.3731 3.40771 29.3415 3.3129 29.3942 2.99687C29.4469 2.64925 29.4153 2.57551 29.0255 2.23842C28.7832 2.03827 28.5199 1.86972 28.4461 1.86972C28.3724 1.86972 28.3092 1.82759 28.3092 1.77492C28.3092 1.72225 28.109 1.64851 27.8668 1.60637C27.6139 1.56423 27.3611 1.4905 27.2979 1.43783C27.2347 1.38515 26.9503 1.31142 26.6659 1.26928C26.3815 1.23768 26.0549 1.14287 25.939 1.07967C25.6967 0.932187 20.8826 0.753107 20.9669 0.890051ZM22.3047 1.60637C22.389 1.77492 22.5049 1.954 22.5576 1.9856C22.7156 2.10147 22.5154 2.29109 22.2415 2.29109C22.0835 2.29109 21.9571 2.21735 21.9255 2.10147C21.8939 2.00667 21.8202 1.83812 21.7675 1.74331C21.7148 1.63797 21.6727 1.47996 21.6727 1.38515C21.6727 1.10073 22.1257 1.25875 22.3047 1.60637ZM23.5478 1.72225C23.7374 2.13308 23.6215 2.35429 23.2739 2.24895C23.0316 2.16468 22.684 1.37462 22.8736 1.31142C23.1264 1.22714 23.3792 1.38515 23.5478 1.72225ZM24.4432 1.46943C24.538 1.54317 24.6539 1.76438 24.6855 1.94346C24.7487 2.27002 24.7276 2.29109 24.4748 2.29109C24.2641 2.29109 24.1693 2.20682 24.0429 1.91186C23.8217 1.37462 24.0218 1.16394 24.4432 1.46943ZM25.4966 1.57477C25.5914 1.64851 25.7073 1.86972 25.7389 2.0488C25.8021 2.35429 25.781 2.39643 25.5914 2.39643C25.4439 2.39643 25.307 2.28055 25.2016 2.08041C24.9172 1.5221 25.0647 1.25875 25.4966 1.57477ZM26.4131 1.65904C26.5816 1.74331 26.8344 2.27002 26.8344 2.51231C26.8344 2.65978 26.4341 2.61765 26.3393 2.47017C26.1918 2.24895 26.0128 1.66958 26.076 1.60637C26.1497 1.53263 26.1918 1.53263 26.4131 1.65904ZM27.4665 2.02774C27.6455 2.51231 27.6982 2.81779 27.6034 2.81779C27.3717 2.81779 27.1399 2.52284 27.0767 2.15415C27.024 1.83812 27.0451 1.76438 27.1926 1.76438C27.2874 1.76438 27.4138 1.88026 27.4665 2.02774ZM28.3197 2.34376C28.5725 2.77566 28.5725 3.02848 28.3092 3.02848C28.1933 3.02848 28.0669 2.9442 28.0353 2.83886C28.0037 2.74406 27.93 2.57551 27.8773 2.4807C27.5823 1.93293 28.0037 1.80652 28.3197 2.34376ZM28.9834 2.62818C29.1941 2.92314 29.2046 3.23916 29.0044 3.23916C28.878 3.23916 28.6252 2.74406 28.6252 2.49124C28.6252 2.31216 28.8254 2.39643 28.9834 2.62818ZM25.0015 7.40014C25.1911 7.86364 25.1911 8.08486 24.9909 8.08486C24.8119 8.08486 24.559 7.7267 24.4642 7.31586C24.401 7.07358 24.4221 7.03144 24.6117 7.03144C24.7803 7.03144 24.8856 7.13678 25.0015 7.40014Z" fill="white"/>
<path d="M14.1619 1.84857C14.1303 1.8907 14.7623 2.89145 15.5524 4.0818L17.0061 6.2413L17.733 6.26236C18.7442 6.28343 18.7232 6.2729 18.7232 6.43091C18.7232 6.75747 17.891 7.2315 12.6134 9.89664C8.93697 11.7612 8.0521 12.2457 6.81961 13.0674C5.54498 13.9312 4.62852 14.6897 3.50136 15.8168C2.27941 17.0388 1.60522 18.0079 1.00478 19.3773L0.583412 20.357L0.530742 22.211C0.467537 24.2546 0.520208 24.676 1.01531 25.7294C1.18386 26.077 1.42614 26.6143 1.56309 26.9092C1.79484 27.4359 2.05819 27.6888 1.93178 27.2779C1.65789 26.3615 1.64736 26.1192 1.8159 25.1395C2.17406 23.0116 2.91145 21.6632 4.66012 19.9357C7.05136 17.5655 9.66383 15.9748 16.1002 13.0042C18.5652 11.8665 20.8827 10.7183 21.4831 10.3391L21.8834 10.0863V8.68521C21.8834 7.07349 21.5252 4.13447 21.2935 3.81845C21.2092 3.70257 21.0301 3.42869 20.8827 3.218C20.7352 2.99679 20.5034 2.74397 20.3665 2.65969C20.0189 2.42794 19.134 2.18566 18.3018 2.08032C17.9226 2.02765 17.3327 1.94337 16.985 1.88017C16.2687 1.75376 14.2356 1.72216 14.1619 1.84857ZM15.8052 2.48061C16.0159 2.71237 15.9422 2.81771 15.5629 2.81771C15.2785 2.81771 14.8677 2.49115 15.0046 2.36474C15.1416 2.21726 15.6367 2.291 15.8052 2.48061ZM17.2695 2.47008C17.5433 2.7229 17.5012 2.81771 17.1114 2.81771C16.7533 2.81771 16.511 2.65969 16.511 2.42794C16.511 2.2278 17.0377 2.2594 17.2695 2.47008ZM18.7232 2.58596C19.0287 2.82824 18.9233 3.01786 18.5441 2.94412C18.2386 2.89145 17.9647 2.61756 18.049 2.48061C18.1438 2.33314 18.4809 2.39634 18.7232 2.58596ZM19.9662 2.77557C20.1979 2.93358 20.2822 3.23907 20.1031 3.23907C19.8398 3.23907 19.4816 3.01786 19.429 2.82824C19.3658 2.55435 19.6186 2.53329 19.9662 2.77557ZM17.8594 5.61978C18.1965 5.85153 18.1438 5.97794 17.7224 5.97794C17.4801 5.97794 17.3327 5.91474 17.2589 5.77779C17.0693 5.43017 17.4485 5.32483 17.8594 5.61978ZM21.1249 6.3045C21.146 6.67319 21.1039 6.82067 20.9459 6.96815C20.6614 7.22097 20.514 7.10509 20.514 6.59946C20.514 5.72512 21.0723 5.45124 21.1249 6.3045ZM19.8819 7.24204C20.0189 7.65287 20.0083 7.67394 19.7239 7.97943C19.3868 8.32705 19.0392 8.40079 19.0392 8.10584C19.0392 8.01103 19.0076 7.83195 18.976 7.70554C18.9128 7.46325 19.3763 6.82067 19.608 6.82067C19.6818 6.82067 19.8082 7.01029 19.8819 7.24204ZM18.3123 8.05316C18.4914 8.5272 18.3861 8.81162 17.9647 9.05391C17.7435 9.18032 17.5433 9.25405 17.5117 9.23299C17.4801 9.20138 17.4275 8.9591 17.3959 8.69575C17.3327 8.24278 17.3432 8.21118 17.6803 8.00049C18.1543 7.71607 18.1859 7.71607 18.3123 8.05316ZM16.6585 8.80109C16.6796 8.84322 16.7322 9.04337 16.7744 9.25405C16.8376 9.61221 16.8165 9.64382 16.4478 9.86503C16.0159 10.1179 15.9211 10.0757 15.7841 9.59115C15.6788 9.23299 15.7104 9.15925 16.0896 8.90643C16.3741 8.70628 16.5742 8.67468 16.6585 8.80109ZM15.1205 9.98091C15.2258 10.4023 15.2153 10.4128 14.8466 10.6656C14.6359 10.8131 14.4252 10.929 14.3936 10.929C14.2988 10.929 14.0882 10.3285 14.0882 10.0863C14.0882 9.92824 14.6149 9.58061 14.8887 9.57008C14.952 9.55954 15.0573 9.74916 15.1205 9.98091ZM13.414 10.6867C13.4456 10.792 13.5193 10.9606 13.572 11.0659C13.6984 11.2977 13.6141 11.4557 13.3508 11.4557C13.2454 11.4557 13.119 11.4978 13.0874 11.561C12.9715 11.7506 12.6344 11.6664 12.5607 11.4241C12.4132 10.9711 12.4554 10.771 12.7187 10.6446C13.0874 10.4549 13.3508 10.476 13.414 10.6867ZM11.8023 11.5821C11.9813 12.014 11.9497 12.0983 11.5494 12.3195C11.107 12.5828 11.0543 12.5618 10.8752 12.1299C10.6751 11.6453 10.6646 11.698 11.0649 11.4557C11.5284 11.1713 11.6442 11.1923 11.8023 11.5821ZM10.1379 12.4038C10.3591 12.8357 10.338 12.9621 9.96931 13.1622C9.53742 13.415 9.40047 13.4045 9.26353 13.0885C9.07391 12.6776 9.10552 12.5512 9.48475 12.3089C9.92718 12.0245 9.94825 12.0351 10.1379 12.4038ZM8.61041 13.4572C8.68415 13.6889 8.72629 13.8996 8.70522 13.9101C8.32599 14.2051 7.9573 14.4052 7.88356 14.3526C7.83089 14.321 7.72555 14.1208 7.65181 13.9101C7.53593 13.5414 7.54647 13.5098 7.83089 13.2781C8.27332 12.9305 8.4524 12.9726 8.61041 13.4572ZM6.97762 14.2999C7.20937 14.7529 7.17777 14.9741 6.83015 15.1742C6.38771 15.427 6.31397 15.406 6.17703 14.9214C6.05062 14.5106 6.05062 14.4895 6.35611 14.2472C6.74587 13.9207 6.77748 13.9207 6.97762 14.2999ZM5.66086 15.5745C5.78727 15.8695 5.77673 15.9116 5.50285 16.196C5.3343 16.3751 5.14469 16.5121 5.08148 16.5121C5.00774 16.5121 4.89187 16.3224 4.81813 16.0907C4.68119 15.6799 4.69172 15.6588 4.97614 15.3533C5.31323 15.0057 5.45018 15.0478 5.66086 15.5745ZM4.32303 16.7333C4.4705 17.0914 4.45997 17.1125 4.16501 17.4391C4.007 17.6287 3.81739 17.7551 3.76472 17.7235C3.71205 17.6919 3.60671 17.4707 3.5435 17.2389C3.41709 16.8492 3.42763 16.807 3.71205 16.5121C4.04914 16.1644 4.09128 16.1855 4.32303 16.7333ZM3.15374 17.9658C3.30122 18.345 3.30122 18.3977 3.1116 18.6505C2.84825 19.0087 2.66917 19.0087 2.52169 18.6716C2.35314 18.3029 2.36368 18.1238 2.5849 17.8288C2.83771 17.4707 2.97466 17.5023 3.15374 17.9658ZM2.2478 19.5354C2.32154 19.8092 2.07926 20.4097 1.91071 20.4097C1.84751 20.4097 1.73163 20.2306 1.66843 20.0094C1.55255 19.6512 1.55255 19.5564 1.71056 19.2509C1.88964 18.9138 1.90018 18.9033 2.04766 19.1035C2.12139 19.2088 2.2162 19.4089 2.2478 19.5354ZM1.51042 20.8943C1.6895 21.3156 1.61576 21.8845 1.39454 21.8845C1.20493 21.8845 0.983709 21.1365 1.06798 20.7889C1.16279 20.4097 1.3208 20.4518 1.51042 20.8943ZM1.02585 22.369C1.16279 22.7167 1.16279 23.4646 1.02585 23.4646C0.867834 23.4646 0.709822 22.9905 0.709822 22.506C0.709822 22.0425 0.878368 21.9582 1.02585 22.369ZM1.00478 24.4021C1.16279 24.9078 1.16279 24.9394 0.994243 24.9394C0.90997 24.9394 0.794095 24.7603 0.73089 24.5285C0.572878 24.0229 0.572878 23.9913 0.741424 23.9913C0.825697 23.9913 0.941573 24.1704 1.00478 24.4021Z" fill="white"/>
<path d="M30.0158 4.26075C30.0263 4.31342 29.8999 4.62944 29.7314 4.97707C29.447 5.56698 27.8774 7.34724 27.6456 7.34724C27.593 7.34724 27.298 7.55792 27.003 7.82128C26.6976 8.08463 26.3921 8.29531 26.3394 8.29531C26.2762 8.29531 26.0128 8.46386 25.7495 8.66401C25.4861 8.86416 25.2438 9.0327 25.2017 9.0327C25.1701 9.0327 24.7066 9.29605 24.1694 9.62261C23.1792 10.2125 17.87 12.8777 15.6683 13.8784C7.92575 17.3968 3.98599 20.4622 2.64816 24.0017C2.39534 24.6864 2.3532 24.9498 2.3216 26.1823C2.31107 26.9618 2.26893 27.6254 2.24786 27.6676C2.20573 27.7308 2.3216 27.9836 3.01685 29.2055C3.32234 29.7428 4.70231 31.1544 4.93406 31.1544C5.02887 31.1544 5.17635 31.2281 5.25009 31.3334C5.33436 31.4282 5.82946 31.8812 6.34563 32.3552C6.87234 32.8187 7.34638 33.3244 7.40958 33.4719C7.53599 33.7457 8.51566 34.6306 8.70528 34.6306C8.87382 34.6306 8.84222 34.5042 8.56833 34.1671C8.42086 33.9986 8.33658 33.7984 8.36819 33.7247C8.38925 33.6615 8.36819 33.5667 8.30498 33.5245C8.1575 33.4403 8.14697 31.3966 8.29445 31.3124C8.35765 31.2702 8.39979 31.186 8.38925 31.1228C8.36819 30.9753 8.45246 30.7119 8.69474 30.2063C9.54801 28.4682 11.6338 26.3929 14.4885 24.4757C15.1416 24.0333 15.7842 23.6014 15.9106 23.5171C16.5005 23.1063 17.2063 22.6533 17.3538 22.6006C17.5329 22.5374 19.3763 21.4524 21.5042 20.1778C23.9165 18.7346 25.6231 17.618 26.7608 16.7542C27.8458 15.9326 29.9947 13.8468 29.9947 13.6045C29.9947 13.5413 30.0579 13.4254 30.1422 13.3622C30.2897 13.2358 30.7637 12.3404 30.7953 12.1403C30.7953 12.0771 30.8375 11.9507 30.8901 11.8453C30.9323 11.7505 30.9323 11.5082 30.9007 11.3186C30.8585 11.1395 30.8269 10.8972 30.8269 10.7919C30.8269 10.5496 30.6584 10.5601 30.5004 10.8235C30.4266 10.9394 30.3213 11.0342 30.2792 11.0342C30.1317 11.0342 30.237 6.43077 30.395 6.27276C30.5425 6.12528 30.5636 5.59858 30.4161 5.50377C30.3634 5.47217 30.2897 5.16668 30.2476 4.81905C30.2054 4.47143 30.1317 4.18701 30.0895 4.18701C30.0369 4.18701 30.0053 4.21861 30.0158 4.26075ZM30.237 5.97781C30.237 6.33597 30.1633 6.45184 30.0053 6.3465C29.8789 6.27276 29.8473 5.63018 29.9631 5.51431C30.0895 5.39843 30.237 5.64072 30.237 5.97781ZM29.6682 7.18923C29.5839 7.46312 29.2573 7.53686 29.2573 7.2735C29.2573 7.16816 29.2257 6.98908 29.1941 6.86267C29.1625 6.72573 29.2047 6.56772 29.3206 6.46238C29.4996 6.2833 29.5102 6.29383 29.626 6.63092C29.6892 6.82054 29.7103 7.07336 29.6682 7.18923ZM28.8149 7.7054C28.8781 8.40065 28.3725 8.68508 28.2461 8.03196C28.1934 7.74754 28.225 7.60006 28.3725 7.44205C28.6253 7.15763 28.7728 7.2419 28.8149 7.7054ZM27.7931 8.59027C27.8458 8.85362 27.8142 8.9695 27.614 9.14858C27.2875 9.45407 27.1084 9.31712 27.1821 8.79042C27.2769 8.12677 27.6667 7.98982 27.7931 8.59027ZM26.666 9.36979C26.7292 9.75956 26.7081 9.84383 26.4974 10.0018C26.1603 10.2652 25.9602 10.1915 25.8654 9.77009C25.8022 9.45407 25.8232 9.36979 26.055 9.15911C26.4447 8.82202 26.5922 8.86416 26.666 9.36979ZM25.3071 10.202C25.3808 10.6023 25.3492 10.6655 25.0858 10.8867C24.6961 11.2027 24.5907 11.1606 24.4643 10.6655C24.38 10.2968 24.3906 10.2547 24.675 10.0229C25.1174 9.67528 25.2228 9.70689 25.3071 10.202ZM23.8639 11.1079C23.9798 11.4661 23.8955 11.603 23.3793 11.8664C23.1686 11.9823 23.137 11.9612 23.0422 11.7189C22.8631 11.2554 22.9158 11.0447 23.274 10.8235C23.6532 10.5918 23.6953 10.6234 23.8639 11.1079ZM30.6795 11.582C30.5636 12.1824 30.5109 12.2983 30.374 12.2983C30.2792 12.2983 30.2476 12.1719 30.2686 11.898C30.2897 11.6873 30.3002 11.445 30.3002 11.3713C30.3108 11.3081 30.4056 11.2449 30.532 11.2449C30.7216 11.2449 30.7427 11.287 30.6795 11.582ZM22.2943 11.7821C22.4628 12.2772 22.4418 12.3509 22.0415 12.5722C21.6096 12.8039 21.4832 12.7196 21.3884 12.1719C21.3357 11.8348 21.3673 11.7716 21.6306 11.6241C22.0731 11.3923 22.1679 11.4134 22.2943 11.7821ZM20.7879 12.7512C20.9249 13.141 20.9249 13.1515 20.5878 13.3517C20.1348 13.6361 19.9768 13.5834 19.8188 13.1199C19.6924 12.7407 19.6924 12.7302 20.0189 12.5195C20.4824 12.2351 20.6299 12.2772 20.7879 12.7512ZM29.9947 12.6354C29.9842 12.9935 29.7946 13.3517 29.605 13.3517C29.5102 13.3517 29.5102 13.1305 29.6366 12.53C29.7103 12.1508 29.9947 12.2351 29.9947 12.6354ZM19.0392 13.4149C19.2183 13.8784 19.1657 14.0364 18.7759 14.226C18.5652 14.3208 18.3756 14.4051 18.3545 14.4051C18.3124 14.4051 17.9858 13.6993 17.9858 13.6045C17.9858 13.5202 18.6706 13.141 18.8075 13.141C18.8812 13.141 18.9866 13.2674 19.0392 13.4149ZM29.152 13.5518C29.152 13.9943 28.8465 14.4894 28.6464 14.363C28.4568 14.2471 28.4989 13.6361 28.7096 13.3728C28.9835 13.0146 29.152 13.0883 29.152 13.5518ZM17.4065 14.3735C17.4907 14.5736 17.5645 14.7633 17.5645 14.7738C17.5645 14.837 16.806 15.2478 16.6796 15.2478C16.5216 15.2478 16.1634 14.542 16.2477 14.3946C16.3425 14.2471 17.0799 13.8889 17.1747 13.9521C17.2168 13.9732 17.3222 14.1628 17.4065 14.3735ZM28.0986 14.5842C28.0986 14.9739 27.8563 15.3532 27.6035 15.3532C27.4033 15.3532 27.4244 14.6263 27.6456 14.384C27.9195 14.0785 28.0986 14.1523 28.0986 14.5842ZM15.6157 15.1425C15.8474 15.5955 15.8158 15.7113 15.405 15.9115C14.8888 16.1538 14.8361 16.1432 14.6571 15.7219C14.4569 15.2268 14.4569 15.2057 14.8572 15.0055C15.3312 14.7738 15.426 14.7843 15.6157 15.1425ZM26.9398 15.5533C26.9398 15.8693 26.8766 15.9958 26.6765 16.1327C26.3289 16.3539 26.2025 16.2696 26.2025 15.8272C26.2025 15.5744 26.2762 15.4164 26.4763 15.2584C26.824 14.9845 26.9398 15.0582 26.9398 15.5533ZM13.9091 16.0484C14.1198 16.4803 14.1093 16.5225 13.6142 16.8174L13.2349 17.0386L13.0348 16.691C12.7504 16.2275 12.7714 16.1222 13.1717 15.8799C13.6352 15.5955 13.709 15.606 13.9091 16.0484ZM25.6336 16.3539C25.7179 16.8174 25.6652 16.9544 25.3176 17.144C25.0648 17.2704 25.0226 17.2704 24.9384 17.144C24.7593 16.8596 24.8225 16.3961 25.0753 16.1854C25.4124 15.9009 25.5493 15.9431 25.6336 16.3539ZM12.2237 16.8806C12.4765 17.4073 12.4554 17.5021 12.0341 17.7023C11.5179 17.9446 11.4863 17.934 11.244 17.46L11.0333 17.0386L11.4231 16.7858C11.9498 16.4382 12.013 16.4487 12.2237 16.8806ZM24.2642 17.3757C24.3168 17.7023 24.2852 17.776 23.9903 17.9867C23.6005 18.2606 23.4846 18.1974 23.4004 17.6496C23.3372 17.3231 23.3688 17.2599 23.6848 17.0597C24.0956 16.8069 24.1799 16.8596 24.2642 17.3757ZM10.5066 17.7971C10.6225 17.9867 10.7173 18.2185 10.7173 18.3027C10.7173 18.4397 10.0958 18.9348 9.92724 18.9348C9.87457 18.9348 9.34786 18.1342 9.34786 18.0499C9.34786 17.9762 10.1168 17.46 10.2117 17.46C10.2643 17.46 10.3907 17.618 10.5066 17.7971ZM22.7367 18.0604C22.8947 18.4818 22.821 18.7136 22.4418 18.9453L22.0941 19.1665L21.9993 18.9137C21.7571 18.2501 21.7571 18.229 22.1152 17.9972C22.5576 17.7128 22.5998 17.7234 22.7367 18.0604ZM8.92649 18.9558L9.16878 19.3877L8.81062 19.6827C8.61047 19.8512 8.42086 19.9882 8.37872 19.9882C8.33658 19.9882 8.16804 19.788 8.02056 19.5458L7.73614 19.1033L8.0943 18.8084C8.28391 18.6504 8.4946 18.5134 8.5578 18.5134C8.621 18.5134 8.78955 18.7136 8.92649 18.9558ZM21.1987 19.1033C21.2514 19.4193 21.2198 19.5352 21.0302 19.7354C20.7458 20.0303 20.5246 20.0619 20.4508 19.7986C20.4192 19.7038 20.3455 19.5352 20.2928 19.4299C20.1664 19.2087 20.3244 18.9664 20.672 18.8294C21.0407 18.6714 21.125 18.7136 21.1987 19.1033ZM19.6186 19.9461C19.7029 20.1567 19.7766 20.3569 19.7766 20.399C19.7766 20.4833 19.0709 20.9363 18.9339 20.9363C18.8391 20.9363 18.5125 20.2831 18.5125 20.1041C18.5125 20.0303 19.2499 19.5774 19.3763 19.5668C19.4185 19.5668 19.5344 19.7354 19.6186 19.9461ZM7.43065 20.0409C7.7256 20.5149 7.7256 20.536 7.32531 20.8309L6.99875 21.0732L6.74593 20.7677C6.44044 20.3779 6.44044 20.0514 6.7354 19.8407C7.07249 19.5984 7.15676 19.63 7.43065 20.0409ZM17.8805 20.5992C17.8805 20.7045 17.9121 20.8309 17.9542 20.8731C18.1228 21.0416 18.0385 21.3787 17.7646 21.5683C17.3643 21.8633 17.1852 21.8317 16.9956 21.4419C16.8376 21.1364 16.8376 21.0943 16.9956 20.9152C17.101 20.8098 17.2379 20.7256 17.3011 20.7256C17.3749 20.7256 17.4907 20.6518 17.5645 20.5676C17.7436 20.3569 17.8805 20.3674 17.8805 20.5992ZM6.29296 21.6104C6.29296 21.7685 5.85053 22.2004 5.69252 22.2004C5.61878 22.2004 5.55558 22.1477 5.55558 22.0739C5.55558 22.0107 5.45023 21.8422 5.32382 21.7052L5.09207 21.463L5.4081 21.1364L5.71359 20.8204L5.99801 21.168C6.15602 21.3576 6.29296 21.5578 6.29296 21.6104ZM16.195 21.8001C16.5005 22.2952 16.4584 22.4426 15.9738 22.7165C15.4998 22.9904 15.5209 22.9904 15.1838 22.3794C15.089 22.2109 15.0468 22.0529 15.0784 22.0107C15.1416 21.9475 15.9106 21.4735 15.9633 21.463C15.9738 21.463 16.0792 21.621 16.195 21.8001ZM4.96566 22.4637L5.25009 22.8324L5.02887 23.1484C4.90246 23.3275 4.76552 23.4644 4.72338 23.4644C4.68124 23.4644 4.5127 23.2854 4.36522 23.0747C4.10187 22.706 4.09133 22.6849 4.27041 22.39C4.49163 22.0002 4.62857 22.0213 4.96566 22.4637ZM14.4569 22.6744C14.4885 22.7587 14.5412 22.9167 14.5833 23.0115C14.7097 23.3591 14.6676 23.5066 14.4148 23.633C14.2778 23.7067 14.1303 23.8226 14.0882 23.8858C14.0355 23.9701 13.9197 23.8963 13.7301 23.6541C13.4351 23.2538 13.3719 22.9377 13.5931 22.9377C13.6774 22.9377 13.8249 22.8429 13.9302 22.7271C14.1514 22.4742 14.3937 22.4532 14.4569 22.6744ZM4.07026 23.6962C4.28095 23.949 4.30202 24.0649 4.22828 24.2861C4.09133 24.6864 3.85958 24.6759 3.57516 24.265C3.36448 23.9596 3.35394 23.8753 3.45929 23.633C3.62783 23.2854 3.75424 23.2959 4.07026 23.6962ZM12.9189 23.9279C13.2139 24.402 13.1928 24.5284 12.7925 24.8128L12.4554 25.0551L12.171 24.7075C12.0025 24.5179 11.876 24.3072 11.876 24.244C11.876 24.1176 12.487 23.5698 12.6345 23.5698C12.6661 23.5698 12.8031 23.7278 12.9189 23.9279ZM3.50142 25.0551C3.6489 25.2447 3.75424 25.4554 3.72264 25.5397C3.6805 25.6239 3.65943 25.7398 3.65943 25.7925C3.65943 25.9926 3.44875 25.8768 3.1854 25.5186C2.99578 25.2763 2.92205 25.0867 2.97472 24.9392C3.06952 24.6443 3.17486 24.6759 3.50142 25.0551ZM11.4863 25.1078L11.7918 25.4659L11.4863 25.7187C11.3283 25.8662 11.1597 25.9926 11.1281 25.9926C11.0965 25.9926 10.9385 25.8452 10.77 25.6766L10.4645 25.3606L10.77 25.0446C10.9385 24.8655 11.0965 24.7285 11.1281 24.7391C11.1597 24.7391 11.3283 24.9076 11.4863 25.1078ZM3.17486 26.2349C3.43822 26.5825 3.54356 27.1514 3.35394 27.1514C3.1854 27.1514 2.71136 26.4245 2.71136 26.1612C2.71136 25.7925 2.85884 25.8136 3.17486 26.2349ZM10.1801 26.256C10.3591 26.4667 10.5066 26.6668 10.5066 26.709C10.5066 26.8775 9.87457 27.4042 9.79029 27.2989C9.74816 27.2462 9.57961 27.046 9.41106 26.8564L9.09504 26.5193L9.40053 26.2033C9.56908 26.0242 9.73762 25.8873 9.77976 25.8873C9.82189 25.8873 10.001 26.0558 10.1801 26.256ZM9.08451 27.5201L9.36893 27.8782L9.13718 28.2048C9.01077 28.3733 8.88436 28.5208 8.84222 28.5208C8.74741 28.5208 8.18911 27.8256 8.18911 27.7097C8.18911 27.5412 8.51566 27.1514 8.66314 27.1514C8.74741 27.1514 8.93703 27.3199 9.08451 27.5201ZM3.22753 27.6254C3.39608 27.8782 3.44875 28.0679 3.40661 28.2469C3.36448 28.426 3.41715 28.6367 3.55409 28.8579C3.79638 29.2582 3.82798 29.4689 3.62783 29.4689C3.48035 29.4689 3.19593 29.0581 3.28021 28.9633C3.31181 28.9317 3.2486 28.8474 3.13273 28.7631C2.91151 28.6051 2.83777 28.2048 3.03792 28.2048C3.10113 28.2048 3.04845 28.0679 2.93258 27.8993C2.80617 27.7308 2.71136 27.5201 2.71136 27.4253C2.71136 27.1409 2.96418 27.2357 3.22753 27.6254ZM8.10483 28.6999C8.43139 29.0054 8.47353 29.3214 8.25231 29.6269C8.11537 29.806 8.0943 29.806 7.78881 29.4584C7.43065 29.0686 7.38851 28.9317 7.55706 28.6156C7.70454 28.3523 7.75721 28.3628 8.10483 28.6999ZM7.5992 30.0483C7.78881 30.3011 7.86255 30.4907 7.82041 30.6276C7.77828 30.7435 7.7256 30.8383 7.68347 30.8383C7.53599 30.8383 7.03035 30.1009 7.03035 29.9008C7.03035 29.5637 7.29371 29.6374 7.5992 30.0483ZM7.37798 31.0912C7.694 31.4914 7.74667 31.7864 7.50439 31.7864C7.34638 31.7864 6.81967 31.0912 6.81967 30.8699C6.81967 30.6171 7.08302 30.733 7.37798 31.0912ZM7.36744 32.0498C7.51492 32.3868 7.49385 32.4711 7.27264 32.3868C7.2305 32.3763 7.17783 32.271 7.15676 32.1551C7.14623 32.0392 7.08302 31.9233 7.03035 31.9128C6.87234 31.8601 6.90394 31.6811 7.06195 31.6811C7.13569 31.6811 7.27264 31.8496 7.36744 32.0498ZM7.62026 32.8082C7.6308 32.9136 7.65187 33.061 7.67293 33.1453C7.75721 33.4192 7.48332 33.3665 7.35691 33.0926C7.25157 32.8609 7.2621 32.7871 7.36744 32.7239C7.56759 32.587 7.62026 32.6081 7.62026 32.8082Z" fill="white"/>
<path d="M9.8431 29.5533C9.64295 29.7745 9.61135 30.1537 9.76936 30.2591C9.96951 30.3855 9.8747 30.5224 9.59028 30.5224C9.35853 30.5224 9.24265 30.6172 9.06357 30.9438C8.85289 31.302 8.82129 31.5021 8.82129 32.5766V33.7986L9.35853 34.3674C9.79043 34.8204 9.8747 34.9784 9.77989 35.0837C9.62188 35.2839 9.8747 35.4945 10.7174 35.8422C11.0967 36.0002 11.5602 36.2003 11.7498 36.2846C11.9394 36.3689 12.3713 36.4637 12.6978 36.4953C13.0244 36.5164 13.3931 36.5796 13.509 36.6322C14.3412 36.9693 16.8483 37.1589 20.5984 37.1589C23.3268 37.1589 23.4637 37.1484 23.4637 36.9588C23.4637 36.8534 23.39 36.706 23.3057 36.6322C23.2214 36.5585 23.1477 36.4215 23.1477 36.3267C23.1477 36.2319 23.0529 36.0107 22.937 35.8422C22.8211 35.6631 22.7263 35.4524 22.7263 35.3681C22.7263 35.2839 22.6526 35.0626 22.5578 34.8941C22.326 34.4727 21.9047 33.6089 21.7045 33.156C21.6097 32.9558 21.4728 32.6714 21.3885 32.5239C21.3042 32.3764 21.2094 32.1763 21.1778 32.071C21.1462 31.9761 21.083 31.8919 21.0303 31.8919C20.9777 31.8919 20.9355 31.8287 20.9355 31.7444C20.9355 31.6601 20.8829 31.46 20.8091 31.2914C20.7459 31.1334 20.6827 30.9754 20.6722 30.9438C20.6616 30.9122 20.5984 30.7647 20.5352 30.6067L20.4194 30.3223L18.8076 30.2696C17.9228 30.2486 16.9326 30.1959 16.6165 30.1537C15.9845 30.08 13.5195 29.8483 11.5075 29.6692C10.8122 29.606 10.1907 29.5112 10.1275 29.4585C10.0538 29.3953 9.94844 29.4374 9.8431 29.5533ZM11.3284 30.2275C11.3811 30.3012 11.4654 30.5224 11.5075 30.7015C11.5707 31.0281 11.5602 31.0491 11.2863 31.0491C10.8122 31.0491 10.3171 30.4382 10.5805 30.1748C10.6964 30.0484 11.2125 30.0905 11.3284 30.2275ZM12.7927 30.375C13.0244 30.4171 13.1613 30.5435 13.2878 30.7963C13.3826 30.9965 13.4563 31.1861 13.4563 31.2072C13.4563 31.2388 13.2667 31.2598 13.0349 31.2598C12.6662 31.2598 12.582 31.2072 12.4029 30.9122C12.0447 30.3328 12.1185 30.238 12.7927 30.375ZM14.7836 30.6278C14.9205 30.6278 15.2471 31.144 15.2471 31.3652C15.2471 31.4178 15.0575 31.4705 14.8257 31.4705C14.457 31.4705 14.3728 31.4178 14.1937 31.1229C13.8882 30.6278 13.9198 30.4803 14.3096 30.5646C14.4886 30.5962 14.7099 30.6278 14.7836 30.6278ZM16.8799 31.0491C17.1116 31.5021 17.08 31.5759 16.6271 31.5759C16.1846 31.5759 16.0372 31.46 15.9318 31.0175C15.8581 30.7437 15.8686 30.7331 16.29 30.7331C16.6587 30.7331 16.7429 30.7753 16.8799 31.0491ZM18.6812 31.1018C18.8919 31.6285 18.8708 31.6812 18.4284 31.6812C18.0176 31.6812 17.7753 31.5126 17.6278 31.1229C17.533 30.8279 17.6383 30.7331 18.1018 30.7331C18.4811 30.7331 18.5337 30.7647 18.6812 31.1018ZM20.3562 31.1124C20.5458 31.5864 20.4931 31.6812 20.0401 31.6812C19.7452 31.6812 19.6504 31.618 19.5134 31.3546C19.2817 30.9122 19.3765 30.7331 19.8294 30.7331C20.156 30.7331 20.2192 30.7753 20.3562 31.1124ZM10.9386 35.0626C11.2441 35.3892 11.3389 35.6842 11.1283 35.6842C10.8228 35.6842 10.2013 35.1469 10.1907 34.8625C10.1907 34.6202 10.6332 34.7361 10.9386 35.0626ZM12.5293 35.3365C12.7611 35.5999 12.9612 36.0107 12.8875 36.0739C12.8559 36.1055 12.6662 36.095 12.4556 36.0634C12.1079 35.9896 11.7708 35.6104 11.7708 35.2628C11.7708 35.0837 12.3608 35.1469 12.5293 35.3365ZM14.1621 35.5261C14.3412 35.5894 14.6467 36.2214 14.5413 36.3162C14.3517 36.5058 13.7302 36.2635 13.53 35.9159C13.2351 35.4103 13.4142 35.3049 14.1621 35.5261ZM15.7843 35.7263C16.0266 35.779 16.3005 36.1477 16.3005 36.4215C16.3005 36.4848 16.1109 36.5269 15.8791 36.5269C15.521 36.5269 15.4367 36.4848 15.2998 36.2109C15.0891 35.7895 15.0891 35.5472 15.3314 35.6104C15.4262 35.642 15.6369 35.6947 15.7843 35.7263ZM17.6383 35.9264C17.7964 36.0318 18.0808 36.6006 18.007 36.6744C17.9754 36.706 17.7648 36.7376 17.5435 36.7376C17.2486 36.7376 17.1222 36.6849 17.08 36.548C17.0484 36.4531 16.9747 36.2846 16.922 36.1793C16.8694 36.0739 16.8378 35.958 16.8694 35.9159C16.922 35.8211 17.4803 35.8211 17.6383 35.9264ZM19.4924 36.2109C19.5977 36.3899 19.6504 36.569 19.6188 36.6322C19.524 36.7902 18.9024 36.6322 18.7023 36.4005C18.3968 36.0529 18.46 35.8948 18.913 35.8948C19.2395 35.8948 19.3449 35.9475 19.4924 36.2109ZM21.1462 36.2319C21.378 36.6217 21.3358 36.7376 20.9566 36.7376C20.609 36.7376 20.4826 36.6533 20.314 36.3478C20.1244 35.9791 20.1771 35.8948 20.5668 35.8948C20.8723 35.8948 20.9777 35.958 21.1462 36.2319ZM22.779 36.2109C22.9791 36.6006 22.9159 36.7376 22.5262 36.7376C22.1891 36.7376 22.0416 36.6006 21.9363 36.1793C21.8625 35.9054 21.8836 35.8948 22.2418 35.8948C22.5472 35.8948 22.6421 35.9475 22.779 36.2109Z" fill="white"/>
</svg>
