<svg width="276" height="275" viewBox="0 0 276 275" fill="none" xmlns="http://www.w3.org/2000/svg">
<path d="M125.128 78.961C126.01 76.2554 127.733 73.9025 130.047 72.2455C132.36 70.5885 135.143 69.7141 137.988 69.7498C140.834 69.7856 143.593 70.7297 145.864 72.4444C148.135 74.159 149.799 76.5545 150.613 79.2814L160.452 98.6656C161.409 100.55 162.8 102.18 164.511 103.422C166.222 104.663 168.202 105.481 170.291 105.808L192.105 109.225C194.914 109.236 197.647 110.133 199.917 111.788C202.187 113.443 203.877 115.771 204.747 118.442C205.616 121.113 205.621 123.991 204.761 126.665C203.9 129.338 202.218 131.673 199.954 133.336L184.308 148.928C182.81 150.42 181.688 152.246 181.033 154.255C180.379 156.265 180.211 158.402 180.543 160.489L184.001 182.023C184.952 184.722 185.011 187.655 184.169 190.39C183.327 193.125 181.628 195.517 179.323 197.213C177.018 198.909 174.229 199.82 171.367 199.81C168.506 199.801 165.723 198.873 163.429 197.162L143.871 187.149C141.987 186.184 139.9 185.681 137.783 185.681C135.666 185.681 133.58 186.184 131.696 187.149L112.138 197.162C109.844 198.859 107.067 199.776 104.214 199.779C101.361 199.782 98.582 198.871 96.2844 197.18C93.9868 195.488 92.2915 193.105 91.4471 190.38C90.6027 187.655 90.6537 184.731 91.5924 182.036L95.0367 160.503C95.3715 158.413 95.2048 156.274 94.5502 154.262C93.8956 152.249 92.772 150.421 91.272 148.928L75.8394 133.549C73.4986 131.927 71.7377 129.6 70.8139 126.906C69.8902 124.212 69.852 121.294 70.705 118.577C71.5579 115.86 73.2574 113.487 75.555 111.804C77.8526 110.122 80.6279 109.218 83.4756 109.225L105.276 105.808C107.364 105.481 109.345 104.663 111.056 103.422C112.766 102.18 114.158 100.55 115.115 98.6656L125.128 78.961Z" stroke="black" stroke-width="8" stroke-linecap="round" stroke-linejoin="round"/>
<path d="M137.799 271C211.529 271 271.299 211.23 271.299 137.5C271.299 63.77 211.529 4 137.799 4C64.0686 4 4.29858 63.77 4.29858 137.5C4.29858 211.23 64.0686 271 137.799 271Z" stroke="black" stroke-width="8" stroke-linecap="round" stroke-linejoin="round"/>
</svg>
