<svg width="21" height="21" viewBox="0 0 21 21" fill="none" xmlns="http://www.w3.org/2000/svg">
<path d="M19.1768 4.97676L1.97676 9.97676L1.07676 7.57676C0.77676 6.47676 1.37676 5.37676 2.37676 5.07676L15.8768 1.07676C16.9768 0.77676 18.0768 1.37676 18.3768 2.37676L19.1768 4.97676Z" stroke="white" stroke-width="2" stroke-linecap="round" stroke-linejoin="round"/>
<path d="M5.17676 4.27673L8.27676 8.17673" stroke="white" stroke-width="2" stroke-linecap="round" stroke-linejoin="round"/>
<path d="M11.3768 2.37674L14.4768 6.37674" stroke="white" stroke-width="2" stroke-linecap="round" stroke-linejoin="round"/>
<path d="M1.97675 9.97675H19.9767V17.9767C19.9767 18.5072 19.766 19.0159 19.391 19.391C19.0159 19.766 18.5072 19.9767 17.9767 19.9767H3.97675C3.44631 19.9767 2.9376 19.766 2.56253 19.391C2.18746 19.0159 1.97675 18.5072 1.97675 17.9767V9.97675Z" stroke="white" stroke-width="2" stroke-linecap="round" stroke-linejoin="round"/>
</svg>
